<?xml version="1.0" encoding="utf-8" standalone="no"?>
<!DOCTYPE svg PUBLIC "-//W3C//DTD SVG 1.1//EN"
  "http://www.w3.org/Graphics/SVG/1.1/DTD/svg11.dtd">
<!-- Created with matplotlib (http://matplotlib.org/) -->
<svg height="116pt" version="1.1" viewBox="0 0 467 116" width="467pt" xmlns="http://www.w3.org/2000/svg" xmlns:xlink="http://www.w3.org/1999/xlink">
 <defs>
  <style type="text/css">
*{stroke-linecap:butt;stroke-linejoin:round;}
  </style>
 </defs>
 <g id="figure_1">
  <g id="patch_1">
   <path d="M 0 116.55 
L 467.1 116.55 
L 467.1 0 
L 0 0 
z
" style="fill:#ffffff;"/>
  </g>
  <g id="axes_1">
   <g id="patch_2">
    <path d="M 24.23733 93.302251 
L 138.971804 93.302251 
L 138.971804 8.081835 
L 24.23733 8.081835 
z
" style="fill:#ffffff;"/>
   </g>
   <g id="matplotlib.axis_1">
    <g id="xtick_1">
     <g id="line2d_1">
      <defs>
       <path d="M 0 0 
L 0 3.5 
" id="m8694767025" style="stroke:#000000;stroke-width:0.8;"/>
      </defs>
      <g>
       <use style="stroke:#000000;stroke-width:0.8;" x="34.667736" xlink:href="#m8694767025" y="93.302251"/>
      </g>
     </g>
     <g id="text_1">
      <!-- 0.10 -->
      <defs>
       <path d="M 31.78125 66.40625 
Q 24.171875 66.40625 20.328125 58.90625 
Q 16.5 51.421875 16.5 36.375 
Q 16.5 21.390625 20.328125 13.890625 
Q 24.171875 6.390625 31.78125 6.390625 
Q 39.453125 6.390625 43.28125 13.890625 
Q 47.125 21.390625 47.125 36.375 
Q 47.125 51.421875 43.28125 58.90625 
Q 39.453125 66.40625 31.78125 66.40625 
M 31.78125 74.21875 
Q 44.046875 74.21875 50.515625 64.515625 
Q 56.984375 54.828125 56.984375 36.375 
Q 56.984375 17.96875 50.515625 8.265625 
Q 44.046875 -1.421875 31.78125 -1.421875 
Q 19.53125 -1.421875 13.0625 8.265625 
Q 6.59375 17.96875 6.59375 36.375 
Q 6.59375 54.828125 13.0625 64.515625 
Q 19.53125 74.21875 31.78125 74.21875 
" id="DejaVuSans-30"/>
       <path d="M 10.6875 12.40625 
L 21 12.40625 
L 21 0 
L 10.6875 0 
z
" id="DejaVuSans-2e"/>
       <path d="M 12.40625 8.296875 
L 28.515625 8.296875 
L 28.515625 63.921875 
L 10.984375 60.40625 
L 10.984375 69.390625 
L 28.421875 72.90625 
L 38.28125 72.90625 
L 38.28125 8.296875 
L 54.390625 8.296875 
L 54.390625 0 
L 12.40625 0 
z
" id="DejaVuSans-31"/>
      </defs>
      <g transform="translate(27.988049 104.861314)scale(0.06 -0.06)">
       <use xlink:href="#DejaVuSans-30"/>
       <use x="63.623047" xlink:href="#DejaVuSans-2e"/>
       <use x="95.410156" xlink:href="#DejaVuSans-31"/>
       <use x="159.033203" xlink:href="#DejaVuSans-30"/>
      </g>
     </g>
    </g>
    <g id="xtick_2">
     <g id="line2d_2">
      <g>
       <use style="stroke:#000000;stroke-width:0.8;" x="60.743753" xlink:href="#m8694767025" y="93.302251"/>
      </g>
     </g>
     <g id="text_2">
      <!-- 0.15 -->
      <defs>
       <path d="M 10.796875 72.90625 
L 49.515625 72.90625 
L 49.515625 64.59375 
L 19.828125 64.59375 
L 19.828125 46.734375 
Q 21.96875 47.46875 24.109375 47.828125 
Q 26.265625 48.1875 28.421875 48.1875 
Q 40.625 48.1875 47.75 41.5 
Q 54.890625 34.8125 54.890625 23.390625 
Q 54.890625 11.625 47.5625 5.09375 
Q 40.234375 -1.421875 26.90625 -1.421875 
Q 22.3125 -1.421875 17.546875 -0.640625 
Q 12.796875 0.140625 7.71875 1.703125 
L 7.71875 11.625 
Q 12.109375 9.234375 16.796875 8.0625 
Q 21.484375 6.890625 26.703125 6.890625 
Q 35.15625 6.890625 40.078125 11.328125 
Q 45.015625 15.765625 45.015625 23.390625 
Q 45.015625 31 40.078125 35.4375 
Q 35.15625 39.890625 26.703125 39.890625 
Q 22.75 39.890625 18.8125 39.015625 
Q 14.890625 38.140625 10.796875 36.28125 
z
" id="DejaVuSans-35"/>
      </defs>
      <g transform="translate(54.064066 104.861314)scale(0.06 -0.06)">
       <use xlink:href="#DejaVuSans-30"/>
       <use x="63.623047" xlink:href="#DejaVuSans-2e"/>
       <use x="95.410156" xlink:href="#DejaVuSans-31"/>
       <use x="159.033203" xlink:href="#DejaVuSans-35"/>
      </g>
     </g>
    </g>
    <g id="xtick_3">
     <g id="line2d_3">
      <g>
       <use style="stroke:#000000;stroke-width:0.8;" x="86.81977" xlink:href="#m8694767025" y="93.302251"/>
      </g>
     </g>
     <g id="text_3">
      <!-- 0.20 -->
      <defs>
       <path d="M 19.1875 8.296875 
L 53.609375 8.296875 
L 53.609375 0 
L 7.328125 0 
L 7.328125 8.296875 
Q 12.9375 14.109375 22.625 23.890625 
Q 32.328125 33.6875 34.8125 36.53125 
Q 39.546875 41.84375 41.421875 45.53125 
Q 43.3125 49.21875 43.3125 52.78125 
Q 43.3125 58.59375 39.234375 62.25 
Q 35.15625 65.921875 28.609375 65.921875 
Q 23.96875 65.921875 18.8125 64.3125 
Q 13.671875 62.703125 7.8125 59.421875 
L 7.8125 69.390625 
Q 13.765625 71.78125 18.9375 73 
Q 24.125 74.21875 28.421875 74.21875 
Q 39.75 74.21875 46.484375 68.546875 
Q 53.21875 62.890625 53.21875 53.421875 
Q 53.21875 48.921875 51.53125 44.890625 
Q 49.859375 40.875 45.40625 35.40625 
Q 44.1875 33.984375 37.640625 27.21875 
Q 31.109375 20.453125 19.1875 8.296875 
" id="DejaVuSans-32"/>
      </defs>
      <g transform="translate(80.140083 104.861314)scale(0.06 -0.06)">
       <use xlink:href="#DejaVuSans-30"/>
       <use x="63.623047" xlink:href="#DejaVuSans-2e"/>
       <use x="95.410156" xlink:href="#DejaVuSans-32"/>
       <use x="159.033203" xlink:href="#DejaVuSans-30"/>
      </g>
     </g>
    </g>
    <g id="xtick_4">
     <g id="line2d_4">
      <g>
       <use style="stroke:#000000;stroke-width:0.8;" x="112.895787" xlink:href="#m8694767025" y="93.302251"/>
      </g>
     </g>
     <g id="text_4">
      <!-- 0.25 -->
      <g transform="translate(106.2161 104.861314)scale(0.06 -0.06)">
       <use xlink:href="#DejaVuSans-30"/>
       <use x="63.623047" xlink:href="#DejaVuSans-2e"/>
       <use x="95.410156" xlink:href="#DejaVuSans-32"/>
       <use x="159.033203" xlink:href="#DejaVuSans-35"/>
      </g>
     </g>
    </g>
    <g id="xtick_5">
     <g id="line2d_5">
      <g>
       <use style="stroke:#000000;stroke-width:0.8;" x="138.971804" xlink:href="#m8694767025" y="93.302251"/>
      </g>
     </g>
     <g id="text_5">
      <!-- 0.30 -->
      <defs>
       <path d="M 40.578125 39.3125 
Q 47.65625 37.796875 51.625 33 
Q 55.609375 28.21875 55.609375 21.1875 
Q 55.609375 10.40625 48.1875 4.484375 
Q 40.765625 -1.421875 27.09375 -1.421875 
Q 22.515625 -1.421875 17.65625 -0.515625 
Q 12.796875 0.390625 7.625 2.203125 
L 7.625 11.71875 
Q 11.71875 9.328125 16.59375 8.109375 
Q 21.484375 6.890625 26.8125 6.890625 
Q 36.078125 6.890625 40.9375 10.546875 
Q 45.796875 14.203125 45.796875 21.1875 
Q 45.796875 27.640625 41.28125 31.265625 
Q 36.765625 34.90625 28.71875 34.90625 
L 20.21875 34.90625 
L 20.21875 43.015625 
L 29.109375 43.015625 
Q 36.375 43.015625 40.234375 45.921875 
Q 44.09375 48.828125 44.09375 54.296875 
Q 44.09375 59.90625 40.109375 62.90625 
Q 36.140625 65.921875 28.71875 65.921875 
Q 24.65625 65.921875 20.015625 65.03125 
Q 15.375 64.15625 9.8125 62.3125 
L 9.8125 71.09375 
Q 15.4375 72.65625 20.34375 73.4375 
Q 25.25 74.21875 29.59375 74.21875 
Q 40.828125 74.21875 47.359375 69.109375 
Q 53.90625 64.015625 53.90625 55.328125 
Q 53.90625 49.265625 50.4375 45.09375 
Q 46.96875 40.921875 40.578125 39.3125 
" id="DejaVuSans-33"/>
      </defs>
      <g transform="translate(132.292117 104.861314)scale(0.06 -0.06)">
       <use xlink:href="#DejaVuSans-30"/>
       <use x="63.623047" xlink:href="#DejaVuSans-2e"/>
       <use x="95.410156" xlink:href="#DejaVuSans-33"/>
       <use x="159.033203" xlink:href="#DejaVuSans-30"/>
      </g>
     </g>
    </g>
    <g id="text_6">
     <!-- frequency [Hz] -->
     <defs>
      <path d="M 37.109375 75.984375 
L 37.109375 68.5 
L 28.515625 68.5 
Q 23.6875 68.5 21.796875 66.546875 
Q 19.921875 64.59375 19.921875 59.515625 
L 19.921875 54.6875 
L 34.71875 54.6875 
L 34.71875 47.703125 
L 19.921875 47.703125 
L 19.921875 0 
L 10.890625 0 
L 10.890625 47.703125 
L 2.296875 47.703125 
L 2.296875 54.6875 
L 10.890625 54.6875 
L 10.890625 58.5 
Q 10.890625 67.625 15.140625 71.796875 
Q 19.390625 75.984375 28.609375 75.984375 
z
" id="DejaVuSans-66"/>
      <path d="M 41.109375 46.296875 
Q 39.59375 47.171875 37.8125 47.578125 
Q 36.03125 48 33.890625 48 
Q 26.265625 48 22.1875 43.046875 
Q 18.109375 38.09375 18.109375 28.8125 
L 18.109375 0 
L 9.078125 0 
L 9.078125 54.6875 
L 18.109375 54.6875 
L 18.109375 46.1875 
Q 20.953125 51.171875 25.484375 53.578125 
Q 30.03125 56 36.53125 56 
Q 37.453125 56 38.578125 55.875 
Q 39.703125 55.765625 41.0625 55.515625 
z
" id="DejaVuSans-72"/>
      <path d="M 56.203125 29.59375 
L 56.203125 25.203125 
L 14.890625 25.203125 
Q 15.484375 15.921875 20.484375 11.0625 
Q 25.484375 6.203125 34.421875 6.203125 
Q 39.59375 6.203125 44.453125 7.46875 
Q 49.3125 8.734375 54.109375 11.28125 
L 54.109375 2.78125 
Q 49.265625 0.734375 44.1875 -0.34375 
Q 39.109375 -1.421875 33.890625 -1.421875 
Q 20.796875 -1.421875 13.15625 6.1875 
Q 5.515625 13.8125 5.515625 26.8125 
Q 5.515625 40.234375 12.765625 48.109375 
Q 20.015625 56 32.328125 56 
Q 43.359375 56 49.78125 48.890625 
Q 56.203125 41.796875 56.203125 29.59375 
M 47.21875 32.234375 
Q 47.125 39.59375 43.09375 43.984375 
Q 39.0625 48.390625 32.421875 48.390625 
Q 24.90625 48.390625 20.390625 44.140625 
Q 15.875 39.890625 15.1875 32.171875 
z
" id="DejaVuSans-65"/>
      <path d="M 14.796875 27.296875 
Q 14.796875 17.390625 18.875 11.75 
Q 22.953125 6.109375 30.078125 6.109375 
Q 37.203125 6.109375 41.296875 11.75 
Q 45.40625 17.390625 45.40625 27.296875 
Q 45.40625 37.203125 41.296875 42.84375 
Q 37.203125 48.484375 30.078125 48.484375 
Q 22.953125 48.484375 18.875 42.84375 
Q 14.796875 37.203125 14.796875 27.296875 
M 45.40625 8.203125 
Q 42.578125 3.328125 38.25 0.953125 
Q 33.9375 -1.421875 27.875 -1.421875 
Q 17.96875 -1.421875 11.734375 6.484375 
Q 5.515625 14.40625 5.515625 27.296875 
Q 5.515625 40.1875 11.734375 48.09375 
Q 17.96875 56 27.875 56 
Q 33.9375 56 38.25 53.625 
Q 42.578125 51.265625 45.40625 46.390625 
L 45.40625 54.6875 
L 54.390625 54.6875 
L 54.390625 -20.796875 
L 45.40625 -20.796875 
z
" id="DejaVuSans-71"/>
      <path d="M 8.5 21.578125 
L 8.5 54.6875 
L 17.484375 54.6875 
L 17.484375 21.921875 
Q 17.484375 14.15625 20.5 10.265625 
Q 23.53125 6.390625 29.59375 6.390625 
Q 36.859375 6.390625 41.078125 11.03125 
Q 45.3125 15.671875 45.3125 23.6875 
L 45.3125 54.6875 
L 54.296875 54.6875 
L 54.296875 0 
L 45.3125 0 
L 45.3125 8.40625 
Q 42.046875 3.421875 37.71875 1 
Q 33.40625 -1.421875 27.6875 -1.421875 
Q 18.265625 -1.421875 13.375 4.4375 
Q 8.5 10.296875 8.5 21.578125 
M 31.109375 56 
z
" id="DejaVuSans-75"/>
      <path d="M 54.890625 33.015625 
L 54.890625 0 
L 45.90625 0 
L 45.90625 32.71875 
Q 45.90625 40.484375 42.875 44.328125 
Q 39.84375 48.1875 33.796875 48.1875 
Q 26.515625 48.1875 22.3125 43.546875 
Q 18.109375 38.921875 18.109375 30.90625 
L 18.109375 0 
L 9.078125 0 
L 9.078125 54.6875 
L 18.109375 54.6875 
L 18.109375 46.1875 
Q 21.34375 51.125 25.703125 53.5625 
Q 30.078125 56 35.796875 56 
Q 45.21875 56 50.046875 50.171875 
Q 54.890625 44.34375 54.890625 33.015625 
" id="DejaVuSans-6e"/>
      <path d="M 48.78125 52.59375 
L 48.78125 44.1875 
Q 44.96875 46.296875 41.140625 47.34375 
Q 37.3125 48.390625 33.40625 48.390625 
Q 24.65625 48.390625 19.8125 42.84375 
Q 14.984375 37.3125 14.984375 27.296875 
Q 14.984375 17.28125 19.8125 11.734375 
Q 24.65625 6.203125 33.40625 6.203125 
Q 37.3125 6.203125 41.140625 7.25 
Q 44.96875 8.296875 48.78125 10.40625 
L 48.78125 2.09375 
Q 45.015625 0.34375 40.984375 -0.53125 
Q 36.96875 -1.421875 32.421875 -1.421875 
Q 20.0625 -1.421875 12.78125 6.34375 
Q 5.515625 14.109375 5.515625 27.296875 
Q 5.515625 40.671875 12.859375 48.328125 
Q 20.21875 56 33.015625 56 
Q 37.15625 56 41.109375 55.140625 
Q 45.0625 54.296875 48.78125 52.59375 
" id="DejaVuSans-63"/>
      <path d="M 32.171875 -5.078125 
Q 28.375 -14.84375 24.75 -17.8125 
Q 21.140625 -20.796875 15.09375 -20.796875 
L 7.90625 -20.796875 
L 7.90625 -13.28125 
L 13.1875 -13.28125 
Q 16.890625 -13.28125 18.9375 -11.515625 
Q 21 -9.765625 23.484375 -3.21875 
L 25.09375 0.875 
L 2.984375 54.6875 
L 12.5 54.6875 
L 29.59375 11.921875 
L 46.6875 54.6875 
L 56.203125 54.6875 
z
" id="DejaVuSans-79"/>
      <path id="DejaVuSans-20"/>
      <path d="M 8.59375 75.984375 
L 29.296875 75.984375 
L 29.296875 69 
L 17.578125 69 
L 17.578125 -6.203125 
L 29.296875 -6.203125 
L 29.296875 -13.1875 
L 8.59375 -13.1875 
z
" id="DejaVuSans-5b"/>
      <path d="M 9.8125 72.90625 
L 19.671875 72.90625 
L 19.671875 43.015625 
L 55.515625 43.015625 
L 55.515625 72.90625 
L 65.375 72.90625 
L 65.375 0 
L 55.515625 0 
L 55.515625 34.71875 
L 19.671875 34.71875 
L 19.671875 0 
L 9.8125 0 
z
" id="DejaVuSans-48"/>
      <path d="M 5.515625 54.6875 
L 48.1875 54.6875 
L 48.1875 46.484375 
L 14.40625 7.171875 
L 48.1875 7.171875 
L 48.1875 0 
L 4.296875 0 
L 4.296875 8.203125 
L 38.09375 47.515625 
L 5.515625 47.515625 
z
" id="DejaVuSans-7a"/>
      <path d="M 30.421875 75.984375 
L 30.421875 -13.1875 
L 9.71875 -13.1875 
L 9.71875 -6.203125 
L 21.390625 -6.203125 
L 21.390625 69 
L 9.71875 69 
L 9.71875 75.984375 
z
" id="DejaVuSans-5d"/>
     </defs>
     <g transform="translate(59.367067 114.668189)scale(0.06 -0.06)">
      <use xlink:href="#DejaVuSans-66"/>
      <use x="35.205078" xlink:href="#DejaVuSans-72"/>
      <use x="76.287109" xlink:href="#DejaVuSans-65"/>
      <use x="137.810547" xlink:href="#DejaVuSans-71"/>
      <use x="201.287109" xlink:href="#DejaVuSans-75"/>
      <use x="264.666016" xlink:href="#DejaVuSans-65"/>
      <use x="326.189453" xlink:href="#DejaVuSans-6e"/>
      <use x="389.568359" xlink:href="#DejaVuSans-63"/>
      <use x="444.548828" xlink:href="#DejaVuSans-79"/>
      <use x="503.728516" xlink:href="#DejaVuSans-20"/>
      <use x="535.515625" xlink:href="#DejaVuSans-5b"/>
      <use x="574.529297" xlink:href="#DejaVuSans-48"/>
      <use x="649.724609" xlink:href="#DejaVuSans-7a"/>
      <use x="702.214844" xlink:href="#DejaVuSans-5d"/>
     </g>
    </g>
   </g>
   <g id="matplotlib.axis_2">
    <g id="ytick_1">
     <g id="line2d_6">
      <defs>
       <path d="M 0 0 
L -3.5 0 
" id="m4063a7dd8f" style="stroke:#000000;stroke-width:0.8;"/>
      </defs>
      <g>
       <use style="stroke:#000000;stroke-width:0.8;" x="24.23733" xlink:href="#m4063a7dd8f" y="93.302251"/>
      </g>
     </g>
     <g id="text_7">
      <!-- 0 -->
      <g transform="translate(13.41983 95.581782)scale(0.06 -0.06)">
       <use xlink:href="#DejaVuSans-30"/>
      </g>
     </g>
    </g>
    <g id="ytick_2">
     <g id="line2d_7">
      <g>
       <use style="stroke:#000000;stroke-width:0.8;" x="24.23733" xlink:href="#m4063a7dd8f" y="71.997147"/>
      </g>
     </g>
     <g id="text_8">
      <!-- 1 -->
      <g transform="translate(13.41983 74.276678)scale(0.06 -0.06)">
       <use xlink:href="#DejaVuSans-31"/>
      </g>
     </g>
    </g>
    <g id="ytick_3">
     <g id="line2d_8">
      <g>
       <use style="stroke:#000000;stroke-width:0.8;" x="24.23733" xlink:href="#m4063a7dd8f" y="50.692043"/>
      </g>
     </g>
     <g id="text_9">
      <!-- 2 -->
      <g transform="translate(13.41983 52.971575)scale(0.06 -0.06)">
       <use xlink:href="#DejaVuSans-32"/>
      </g>
     </g>
    </g>
    <g id="ytick_4">
     <g id="line2d_9">
      <g>
       <use style="stroke:#000000;stroke-width:0.8;" x="24.23733" xlink:href="#m4063a7dd8f" y="29.386939"/>
      </g>
     </g>
     <g id="text_10">
      <!-- 3 -->
      <g transform="translate(13.41983 31.666471)scale(0.06 -0.06)">
       <use xlink:href="#DejaVuSans-33"/>
      </g>
     </g>
    </g>
    <g id="ytick_5">
     <g id="line2d_10">
      <g>
       <use style="stroke:#000000;stroke-width:0.8;" x="24.23733" xlink:href="#m4063a7dd8f" y="8.081835"/>
      </g>
     </g>
     <g id="text_11">
      <!-- 4 -->
      <defs>
       <path d="M 37.796875 64.3125 
L 12.890625 25.390625 
L 37.796875 25.390625 
z
M 35.203125 72.90625 
L 47.609375 72.90625 
L 47.609375 25.390625 
L 58.015625 25.390625 
L 58.015625 17.1875 
L 47.609375 17.1875 
L 47.609375 0 
L 37.796875 0 
L 37.796875 17.1875 
L 4.890625 17.1875 
L 4.890625 26.703125 
z
" id="DejaVuSans-34"/>
      </defs>
      <g transform="translate(13.41983 10.361367)scale(0.06 -0.06)">
       <use xlink:href="#DejaVuSans-34"/>
      </g>
     </g>
    </g>
    <g id="text_12">
     <!-- average PSD [$m^2/Hz$] -->
     <defs>
      <path d="M 34.28125 27.484375 
Q 23.390625 27.484375 19.1875 25 
Q 14.984375 22.515625 14.984375 16.5 
Q 14.984375 11.71875 18.140625 8.90625 
Q 21.296875 6.109375 26.703125 6.109375 
Q 34.1875 6.109375 38.703125 11.40625 
Q 43.21875 16.703125 43.21875 25.484375 
L 43.21875 27.484375 
z
M 52.203125 31.203125 
L 52.203125 0 
L 43.21875 0 
L 43.21875 8.296875 
Q 40.140625 3.328125 35.546875 0.953125 
Q 30.953125 -1.421875 24.3125 -1.421875 
Q 15.921875 -1.421875 10.953125 3.296875 
Q 6 8.015625 6 15.921875 
Q 6 25.140625 12.171875 29.828125 
Q 18.359375 34.515625 30.609375 34.515625 
L 43.21875 34.515625 
L 43.21875 35.40625 
Q 43.21875 41.609375 39.140625 45 
Q 35.0625 48.390625 27.6875 48.390625 
Q 23 48.390625 18.546875 47.265625 
Q 14.109375 46.140625 10.015625 43.890625 
L 10.015625 52.203125 
Q 14.9375 54.109375 19.578125 55.046875 
Q 24.21875 56 28.609375 56 
Q 40.484375 56 46.34375 49.84375 
Q 52.203125 43.703125 52.203125 31.203125 
" id="DejaVuSans-61"/>
      <path d="M 2.984375 54.6875 
L 12.5 54.6875 
L 29.59375 8.796875 
L 46.6875 54.6875 
L 56.203125 54.6875 
L 35.6875 0 
L 23.484375 0 
z
" id="DejaVuSans-76"/>
      <path d="M 45.40625 27.984375 
Q 45.40625 37.75 41.375 43.109375 
Q 37.359375 48.484375 30.078125 48.484375 
Q 22.859375 48.484375 18.828125 43.109375 
Q 14.796875 37.75 14.796875 27.984375 
Q 14.796875 18.265625 18.828125 12.890625 
Q 22.859375 7.515625 30.078125 7.515625 
Q 37.359375 7.515625 41.375 12.890625 
Q 45.40625 18.265625 45.40625 27.984375 
M 54.390625 6.78125 
Q 54.390625 -7.171875 48.1875 -13.984375 
Q 42 -20.796875 29.203125 -20.796875 
Q 24.46875 -20.796875 20.265625 -20.09375 
Q 16.0625 -19.390625 12.109375 -17.921875 
L 12.109375 -9.1875 
Q 16.0625 -11.328125 19.921875 -12.34375 
Q 23.78125 -13.375 27.78125 -13.375 
Q 36.625 -13.375 41.015625 -8.765625 
Q 45.40625 -4.15625 45.40625 5.171875 
L 45.40625 9.625 
Q 42.625 4.78125 38.28125 2.390625 
Q 33.9375 0 27.875 0 
Q 17.828125 0 11.671875 7.65625 
Q 5.515625 15.328125 5.515625 27.984375 
Q 5.515625 40.671875 11.671875 48.328125 
Q 17.828125 56 27.875 56 
Q 33.9375 56 38.28125 53.609375 
Q 42.625 51.21875 45.40625 46.390625 
L 45.40625 54.6875 
L 54.390625 54.6875 
z
" id="DejaVuSans-67"/>
      <path d="M 19.671875 64.796875 
L 19.671875 37.40625 
L 32.078125 37.40625 
Q 38.96875 37.40625 42.71875 40.96875 
Q 46.484375 44.53125 46.484375 51.125 
Q 46.484375 57.671875 42.71875 61.234375 
Q 38.96875 64.796875 32.078125 64.796875 
z
M 9.8125 72.90625 
L 32.078125 72.90625 
Q 44.34375 72.90625 50.609375 67.359375 
Q 56.890625 61.8125 56.890625 51.125 
Q 56.890625 40.328125 50.609375 34.8125 
Q 44.34375 29.296875 32.078125 29.296875 
L 19.671875 29.296875 
L 19.671875 0 
L 9.8125 0 
z
" id="DejaVuSans-50"/>
      <path d="M 53.515625 70.515625 
L 53.515625 60.890625 
Q 47.90625 63.578125 42.921875 64.890625 
Q 37.9375 66.21875 33.296875 66.21875 
Q 25.25 66.21875 20.875 63.09375 
Q 16.5 59.96875 16.5 54.203125 
Q 16.5 49.359375 19.40625 46.890625 
Q 22.3125 44.4375 30.421875 42.921875 
L 36.375 41.703125 
Q 47.40625 39.59375 52.65625 34.296875 
Q 57.90625 29 57.90625 20.125 
Q 57.90625 9.515625 50.796875 4.046875 
Q 43.703125 -1.421875 29.984375 -1.421875 
Q 24.8125 -1.421875 18.96875 -0.25 
Q 13.140625 0.921875 6.890625 3.21875 
L 6.890625 13.375 
Q 12.890625 10.015625 18.65625 8.296875 
Q 24.421875 6.59375 29.984375 6.59375 
Q 38.421875 6.59375 43.015625 9.90625 
Q 47.609375 13.234375 47.609375 19.390625 
Q 47.609375 24.75 44.3125 27.78125 
Q 41.015625 30.8125 33.5 32.328125 
L 27.484375 33.5 
Q 16.453125 35.6875 11.515625 40.375 
Q 6.59375 45.0625 6.59375 53.421875 
Q 6.59375 63.09375 13.40625 68.65625 
Q 20.21875 74.21875 32.171875 74.21875 
Q 37.3125 74.21875 42.625 73.28125 
Q 47.953125 72.359375 53.515625 70.515625 
" id="DejaVuSans-53"/>
      <path d="M 19.671875 64.796875 
L 19.671875 8.109375 
L 31.59375 8.109375 
Q 46.6875 8.109375 53.6875 14.9375 
Q 60.6875 21.78125 60.6875 36.53125 
Q 60.6875 51.171875 53.6875 57.984375 
Q 46.6875 64.796875 31.59375 64.796875 
z
M 9.8125 72.90625 
L 30.078125 72.90625 
Q 51.265625 72.90625 61.171875 64.09375 
Q 71.09375 55.28125 71.09375 36.53125 
Q 71.09375 17.671875 61.125 8.828125 
Q 51.171875 0 30.078125 0 
L 9.8125 0 
z
" id="DejaVuSans-44"/>
      <path d="M 89.796875 33.015625 
L 83.40625 0 
L 74.421875 0 
L 80.71875 32.71875 
Q 81.109375 34.8125 81.296875 36.328125 
Q 81.5 37.84375 81.5 38.921875 
Q 81.5 43.3125 79.046875 45.75 
Q 76.609375 48.1875 72.21875 48.1875 
Q 65.671875 48.1875 60.546875 43.28125 
Q 55.421875 38.375 53.90625 30.515625 
L 47.90625 0 
L 38.921875 0 
L 45.3125 32.71875 
Q 45.703125 34.515625 45.890625 36.046875 
Q 46.09375 37.59375 46.09375 38.8125 
Q 46.09375 43.265625 43.65625 45.71875 
Q 41.21875 48.1875 36.921875 48.1875 
Q 30.28125 48.1875 25.140625 43.28125 
Q 20.015625 38.375 18.5 30.515625 
L 12.5 0 
L 3.515625 0 
L 14.203125 54.6875 
L 23.1875 54.6875 
L 21.484375 46.1875 
Q 25.140625 50.984375 30.046875 53.484375 
Q 34.96875 56 40.578125 56 
Q 46.53125 56 50.359375 52.875 
Q 54.203125 49.75 54.984375 44.1875 
Q 59.078125 49.953125 64.46875 52.96875 
Q 69.875 56 75.875 56 
Q 82.90625 56 86.734375 51.953125 
Q 90.578125 47.90625 90.578125 40.484375 
Q 90.578125 38.875 90.375 36.9375 
Q 90.1875 35.015625 89.796875 33.015625 
" id="DejaVuSans-Oblique-6d"/>
      <path d="M 25.390625 72.90625 
L 33.6875 72.90625 
L 8.296875 -9.28125 
L 0 -9.28125 
z
" id="DejaVuSans-2f"/>
      <path d="M 16.890625 72.90625 
L 26.8125 72.90625 
L 21 43.015625 
L 56.78125 43.015625 
L 62.59375 72.90625 
L 72.515625 72.90625 
L 58.296875 0 
L 48.390625 0 
L 55.171875 34.71875 
L 19.390625 34.71875 
L 12.59375 0 
L 2.6875 0 
z
" id="DejaVuSans-Oblique-48"/>
      <path d="M 11.625 54.6875 
L 54.296875 54.6875 
L 52.6875 46.484375 
L 11.53125 7.171875 
L 45.515625 7.171875 
L 44.09375 0 
L -0.296875 0 
L 1.3125 8.203125 
L 42.484375 47.515625 
L 10.203125 47.515625 
z
" id="DejaVuSans-Oblique-7a"/>
     </defs>
     <g transform="translate(8.15983 82.582043)rotate(-90)scale(0.06 -0.06)">
      <use transform="translate(0 0.765625)" xlink:href="#DejaVuSans-61"/>
      <use transform="translate(61.279297 0.765625)" xlink:href="#DejaVuSans-76"/>
      <use transform="translate(120.458984 0.765625)" xlink:href="#DejaVuSans-65"/>
      <use transform="translate(181.982422 0.765625)" xlink:href="#DejaVuSans-72"/>
      <use transform="translate(223.095703 0.765625)" xlink:href="#DejaVuSans-61"/>
      <use transform="translate(284.375 0.765625)" xlink:href="#DejaVuSans-67"/>
      <use transform="translate(347.851562 0.765625)" xlink:href="#DejaVuSans-65"/>
      <use transform="translate(409.375 0.765625)" xlink:href="#DejaVuSans-20"/>
      <use transform="translate(441.162109 0.765625)" xlink:href="#DejaVuSans-50"/>
      <use transform="translate(501.464844 0.765625)" xlink:href="#DejaVuSans-53"/>
      <use transform="translate(564.941406 0.765625)" xlink:href="#DejaVuSans-44"/>
      <use transform="translate(641.943359 0.765625)" xlink:href="#DejaVuSans-20"/>
      <use transform="translate(673.730469 0.765625)" xlink:href="#DejaVuSans-5b"/>
      <use transform="translate(712.744141 0.765625)" xlink:href="#DejaVuSans-Oblique-6d"/>
      <use transform="translate(814.806146 39.046875)scale(0.7)" xlink:href="#DejaVuSans-32"/>
      <use transform="translate(862.076654 0.765625)" xlink:href="#DejaVuSans-2f"/>
      <use transform="translate(895.752435 0.765625)" xlink:href="#DejaVuSans-Oblique-48"/>
      <use transform="translate(970.947747 0.765625)" xlink:href="#DejaVuSans-Oblique-7a"/>
      <use transform="translate(1023.437982 0.765625)" xlink:href="#DejaVuSans-5d"/>
     </g>
    </g>
    <g id="text_13">
     <!-- 1e−15 -->
     <defs>
      <path d="M 10.59375 35.5 
L 73.1875 35.5 
L 73.1875 27.203125 
L 10.59375 27.203125 
z
" id="DejaVuSans-2212"/>
     </defs>
     <g transform="translate(24.23733 5.081835)scale(0.06 -0.06)">
      <use xlink:href="#DejaVuSans-31"/>
      <use x="63.623047" xlink:href="#DejaVuSans-65"/>
      <use x="125.146484" xlink:href="#DejaVuSans-2212"/>
      <use x="208.935547" xlink:href="#DejaVuSans-31"/>
      <use x="272.558594" xlink:href="#DejaVuSans-35"/>
     </g>
    </g>
   </g>
   <g id="line2d_11">
    <path clip-path="url(#p850b841861)" d="M 19.185101 93.302251 
L 23.259479 79.613937 
L 27.333857 75.107333 
L 31.408234 78.516293 
L 35.482612 77.628181 
L 39.55699 67.221996 
L 43.631367 51.903595 
L 47.705745 37.51412 
L 51.780123 29.184236 
L 55.8545 29.734932 
L 59.928878 38.954827 
L 64.003255 51.044057 
L 68.077633 61.06473 
L 72.152011 66.874023 
L 76.226388 69.400636 
L 80.300766 69.278073 
L 84.375144 70.033282 
L 88.449521 73.31097 
L 92.523899 77.928457 
L 96.598277 81.383202 
L 100.672654 84.146162 
L 104.747032 86.498308 
L 108.82141 87.83999 
L 112.895787 89.005243 
L 116.970165 89.860823 
L 121.044542 90.5058 
L 125.11892 90.872512 
L 129.193298 91.274492 
L 133.267675 91.667483 
L 137.342053 92.250418 
L 141.416431 92.824242 
L 145.490808 93.152331 
L 149.565186 93.280014 
L 153.639564 93.301744 
" style="fill:none;stroke:#000000;stroke-linecap:square;stroke-width:1.5;"/>
   </g>
   <g id="line2d_12">
    <path clip-path="url(#p850b841861)" d="M 19.185101 93.302251 
L 23.259479 93.302251 
L 27.333857 93.302251 
L 31.408234 93.302243 
L 35.482612 93.25925 
L 39.55699 93.083691 
L 43.631367 91.526099 
L 47.705745 86.586666 
L 51.780123 79.487439 
L 55.8545 71.285318 
L 59.928878 66.155489 
L 64.003255 65.789013 
L 68.077633 66.798419 
L 72.152011 69.021597 
L 76.226388 64.583144 
L 80.300766 53.05479 
L 84.375144 47.12698 
L 88.449521 59.648699 
L 92.523899 72.170417 
L 96.598277 79.843888 
L 100.672654 85.953911 
L 104.747032 91.884593 
L 108.82141 92.350115 
L 112.895787 92.815637 
L 116.970165 93.265285 
L 121.044542 93.276601 
L 125.11892 93.287916 
L 129.193298 93.299232 
L 133.267675 93.302204 
L 137.342053 93.30222 
L 141.416431 93.302237 
L 145.490808 93.302251 
L 149.565186 93.302251 
L 153.639564 93.302251 
" style="fill:none;stroke:#d40000;stroke-dasharray:4,1;stroke-dashoffset:0;stroke-width:1.5;"/>
   </g>
   <g id="line2d_13">
    <path clip-path="url(#p850b841861)" d="M 19.185101 93.302251 
L 23.259479 93.302251 
L 27.333857 93.286155 
L 31.408234 93.111145 
L 35.482612 92.182327 
L 39.55699 89.756302 
L 43.631367 82.873437 
L 47.705745 72.15345 
L 51.780123 59.607382 
L 55.8545 52.644621 
L 59.928878 50.065436 
L 64.003255 54.28265 
L 68.077633 59.073465 
L 72.152011 64.370298 
L 76.226388 62.847251 
L 80.300766 54.065885 
L 84.375144 50.081495 
L 88.449521 61.899494 
L 92.523899 73.717494 
L 96.598277 80.866386 
L 100.672654 86.5096 
L 104.747032 91.987229 
L 108.82141 92.418886 
L 112.895787 92.850543 
L 116.970165 93.267484 
L 121.044542 93.278076 
L 125.11892 93.288669 
L 129.193298 93.299261 
L 133.267675 93.302076 
L 137.342053 93.302137 
L 141.416431 93.302197 
L 145.490808 93.302251 
L 149.565186 93.302251 
L 153.639564 93.302251 
" style="fill:none;stroke:#0066ff;stroke-dasharray:4,1;stroke-dashoffset:0;stroke-width:1.5;"/>
   </g>
   <g id="line2d_14">
    <path clip-path="url(#p850b841861)" d="M 19.185101 93.302251 
L 23.259479 93.302251 
L 27.333857 93.302098 
L 31.408234 93.262034 
L 35.482612 93.038047 
L 39.55699 92.453351 
L 43.631367 90.257391 
L 47.705745 86.421186 
L 51.780123 81.499709 
L 55.8545 75.630295 
L 59.928878 70.920177 
L 64.003255 68.00746 
L 68.077633 68.384064 
L 72.152011 71.662432 
L 76.226388 76.343784 
L 80.300766 82.518316 
L 84.375144 87.793823 
L 88.449521 90.107726 
L 92.523899 92.42163 
L 96.598277 93.072664 
L 100.672654 93.187461 
L 104.747032 93.29865 
L 108.82141 93.299865 
L 112.895787 93.301079 
L 116.970165 93.302251 
L 121.044542 93.302251 
L 125.11892 93.302251 
L 129.193298 93.302251 
L 133.267675 93.302251 
L 137.342053 93.302251 
L 141.416431 93.302251 
L 145.490808 93.302251 
L 149.565186 93.302251 
L 153.639564 93.302251 
" style="fill:none;stroke:#008000;stroke-dasharray:4,1;stroke-dashoffset:0;stroke-width:1.5;"/>
   </g>
   <g id="patch_3">
    <path d="M 24.23733 93.302251 
L 24.23733 8.081835 
" style="fill:none;stroke:#000000;stroke-linecap:square;stroke-linejoin:miter;stroke-width:0.8;"/>
   </g>
   <g id="patch_4">
    <path d="M 138.971804 93.302251 
L 138.971804 8.081835 
" style="fill:none;stroke:#000000;stroke-linecap:square;stroke-linejoin:miter;stroke-width:0.8;"/>
   </g>
   <g id="patch_5">
    <path d="M 24.23733 93.302251 
L 138.971804 93.302251 
" style="fill:none;stroke:#000000;stroke-linecap:square;stroke-linejoin:miter;stroke-width:0.8;"/>
   </g>
   <g id="patch_6">
    <path d="M 24.23733 8.081835 
L 138.971804 8.081835 
" style="fill:none;stroke:#000000;stroke-linecap:square;stroke-linejoin:miter;stroke-width:0.8;"/>
   </g>
   <g id="text_14">
    <g id="patch_7">
     <path d="M 29.974053 19.949731 
L 33.650928 19.949731 
Q 35.450928 19.949731 35.450928 18.149731 
L 35.450928 12.342856 
Q 35.450928 10.542856 33.650928 10.542856 
L 29.974053 10.542856 
Q 28.174053 10.542856 28.174053 12.342856 
L 28.174053 18.149731 
Q 28.174053 19.949731 29.974053 19.949731 
z
" style="fill:#ffffff;opacity:0.8;stroke:#000000;stroke-linejoin:miter;"/>
    </g>
    <!-- a -->
    <g transform="translate(29.974053 16.901919)scale(0.06 -0.06)">
     <use xlink:href="#DejaVuSans-61"/>
    </g>
   </g>
  </g>
  <g id="axes_2">
   <g id="patch_8">
    <path d="M 176.623928 93.302251 
L 291.358402 93.302251 
L 291.358402 8.081835 
L 176.623928 8.081835 
z
" style="fill:#ffffff;"/>
   </g>
   <g id="matplotlib.axis_3">
    <g id="xtick_6">
     <g id="line2d_15">
      <g>
       <use style="stroke:#000000;stroke-width:0.8;" x="187.054334" xlink:href="#m8694767025" y="93.302251"/>
      </g>
     </g>
     <g id="text_15">
      <!-- 0.10 -->
      <g transform="translate(180.374647 104.861314)scale(0.06 -0.06)">
       <use xlink:href="#DejaVuSans-30"/>
       <use x="63.623047" xlink:href="#DejaVuSans-2e"/>
       <use x="95.410156" xlink:href="#DejaVuSans-31"/>
       <use x="159.033203" xlink:href="#DejaVuSans-30"/>
      </g>
     </g>
    </g>
    <g id="xtick_7">
     <g id="line2d_16">
      <g>
       <use style="stroke:#000000;stroke-width:0.8;" x="213.130351" xlink:href="#m8694767025" y="93.302251"/>
      </g>
     </g>
     <g id="text_16">
      <!-- 0.15 -->
      <g transform="translate(206.450664 104.861314)scale(0.06 -0.06)">
       <use xlink:href="#DejaVuSans-30"/>
       <use x="63.623047" xlink:href="#DejaVuSans-2e"/>
       <use x="95.410156" xlink:href="#DejaVuSans-31"/>
       <use x="159.033203" xlink:href="#DejaVuSans-35"/>
      </g>
     </g>
    </g>
    <g id="xtick_8">
     <g id="line2d_17">
      <g>
       <use style="stroke:#000000;stroke-width:0.8;" x="239.206368" xlink:href="#m8694767025" y="93.302251"/>
      </g>
     </g>
     <g id="text_17">
      <!-- 0.20 -->
      <g transform="translate(232.526681 104.861314)scale(0.06 -0.06)">
       <use xlink:href="#DejaVuSans-30"/>
       <use x="63.623047" xlink:href="#DejaVuSans-2e"/>
       <use x="95.410156" xlink:href="#DejaVuSans-32"/>
       <use x="159.033203" xlink:href="#DejaVuSans-30"/>
      </g>
     </g>
    </g>
    <g id="xtick_9">
     <g id="line2d_18">
      <g>
       <use style="stroke:#000000;stroke-width:0.8;" x="265.282385" xlink:href="#m8694767025" y="93.302251"/>
      </g>
     </g>
     <g id="text_18">
      <!-- 0.25 -->
      <g transform="translate(258.602698 104.861314)scale(0.06 -0.06)">
       <use xlink:href="#DejaVuSans-30"/>
       <use x="63.623047" xlink:href="#DejaVuSans-2e"/>
       <use x="95.410156" xlink:href="#DejaVuSans-32"/>
       <use x="159.033203" xlink:href="#DejaVuSans-35"/>
      </g>
     </g>
    </g>
    <g id="xtick_10">
     <g id="line2d_19">
      <g>
       <use style="stroke:#000000;stroke-width:0.8;" x="291.358402" xlink:href="#m8694767025" y="93.302251"/>
      </g>
     </g>
     <g id="text_19">
      <!-- 0.30 -->
      <g transform="translate(284.678715 104.861314)scale(0.06 -0.06)">
       <use xlink:href="#DejaVuSans-30"/>
       <use x="63.623047" xlink:href="#DejaVuSans-2e"/>
       <use x="95.410156" xlink:href="#DejaVuSans-33"/>
       <use x="159.033203" xlink:href="#DejaVuSans-30"/>
      </g>
     </g>
    </g>
    <g id="text_20">
     <!-- frequency [Hz] -->
     <g transform="translate(211.753665 114.668189)scale(0.06 -0.06)">
      <use xlink:href="#DejaVuSans-66"/>
      <use x="35.205078" xlink:href="#DejaVuSans-72"/>
      <use x="76.287109" xlink:href="#DejaVuSans-65"/>
      <use x="137.810547" xlink:href="#DejaVuSans-71"/>
      <use x="201.287109" xlink:href="#DejaVuSans-75"/>
      <use x="264.666016" xlink:href="#DejaVuSans-65"/>
      <use x="326.189453" xlink:href="#DejaVuSans-6e"/>
      <use x="389.568359" xlink:href="#DejaVuSans-63"/>
      <use x="444.548828" xlink:href="#DejaVuSans-79"/>
      <use x="503.728516" xlink:href="#DejaVuSans-20"/>
      <use x="535.515625" xlink:href="#DejaVuSans-5b"/>
      <use x="574.529297" xlink:href="#DejaVuSans-48"/>
      <use x="649.724609" xlink:href="#DejaVuSans-7a"/>
      <use x="702.214844" xlink:href="#DejaVuSans-5d"/>
     </g>
    </g>
   </g>
   <g id="matplotlib.axis_4">
    <g id="ytick_6">
     <g id="line2d_20">
      <g>
       <use style="stroke:#000000;stroke-width:0.8;" x="176.623928" xlink:href="#m4063a7dd8f" y="93.302251"/>
      </g>
     </g>
     <g id="text_21">
      <!-- 0 -->
      <g transform="translate(165.806428 95.581782)scale(0.06 -0.06)">
       <use xlink:href="#DejaVuSans-30"/>
      </g>
     </g>
    </g>
    <g id="ytick_7">
     <g id="line2d_21">
      <g>
       <use style="stroke:#000000;stroke-width:0.8;" x="176.623928" xlink:href="#m4063a7dd8f" y="71.997147"/>
      </g>
     </g>
     <g id="text_22">
      <!-- 1 -->
      <g transform="translate(165.806428 74.276678)scale(0.06 -0.06)">
       <use xlink:href="#DejaVuSans-31"/>
      </g>
     </g>
    </g>
    <g id="ytick_8">
     <g id="line2d_22">
      <g>
       <use style="stroke:#000000;stroke-width:0.8;" x="176.623928" xlink:href="#m4063a7dd8f" y="50.692043"/>
      </g>
     </g>
     <g id="text_23">
      <!-- 2 -->
      <g transform="translate(165.806428 52.971575)scale(0.06 -0.06)">
       <use xlink:href="#DejaVuSans-32"/>
      </g>
     </g>
    </g>
    <g id="ytick_9">
     <g id="line2d_23">
      <g>
       <use style="stroke:#000000;stroke-width:0.8;" x="176.623928" xlink:href="#m4063a7dd8f" y="29.386939"/>
      </g>
     </g>
     <g id="text_24">
      <!-- 3 -->
      <g transform="translate(165.806428 31.666471)scale(0.06 -0.06)">
       <use xlink:href="#DejaVuSans-33"/>
      </g>
     </g>
    </g>
    <g id="ytick_10">
     <g id="line2d_24">
      <g>
       <use style="stroke:#000000;stroke-width:0.8;" x="176.623928" xlink:href="#m4063a7dd8f" y="8.081835"/>
      </g>
     </g>
     <g id="text_25">
      <!-- 4 -->
      <g transform="translate(165.806428 10.361367)scale(0.06 -0.06)">
       <use xlink:href="#DejaVuSans-34"/>
      </g>
     </g>
    </g>
    <g id="text_26">
     <!-- average PSD [$m^2/Hz$] -->
     <g transform="translate(160.546428 82.582043)rotate(-90)scale(0.06 -0.06)">
      <use transform="translate(0 0.765625)" xlink:href="#DejaVuSans-61"/>
      <use transform="translate(61.279297 0.765625)" xlink:href="#DejaVuSans-76"/>
      <use transform="translate(120.458984 0.765625)" xlink:href="#DejaVuSans-65"/>
      <use transform="translate(181.982422 0.765625)" xlink:href="#DejaVuSans-72"/>
      <use transform="translate(223.095703 0.765625)" xlink:href="#DejaVuSans-61"/>
      <use transform="translate(284.375 0.765625)" xlink:href="#DejaVuSans-67"/>
      <use transform="translate(347.851562 0.765625)" xlink:href="#DejaVuSans-65"/>
      <use transform="translate(409.375 0.765625)" xlink:href="#DejaVuSans-20"/>
      <use transform="translate(441.162109 0.765625)" xlink:href="#DejaVuSans-50"/>
      <use transform="translate(501.464844 0.765625)" xlink:href="#DejaVuSans-53"/>
      <use transform="translate(564.941406 0.765625)" xlink:href="#DejaVuSans-44"/>
      <use transform="translate(641.943359 0.765625)" xlink:href="#DejaVuSans-20"/>
      <use transform="translate(673.730469 0.765625)" xlink:href="#DejaVuSans-5b"/>
      <use transform="translate(712.744141 0.765625)" xlink:href="#DejaVuSans-Oblique-6d"/>
      <use transform="translate(814.806146 39.046875)scale(0.7)" xlink:href="#DejaVuSans-32"/>
      <use transform="translate(862.076654 0.765625)" xlink:href="#DejaVuSans-2f"/>
      <use transform="translate(895.752435 0.765625)" xlink:href="#DejaVuSans-Oblique-48"/>
      <use transform="translate(970.947747 0.765625)" xlink:href="#DejaVuSans-Oblique-7a"/>
      <use transform="translate(1023.437982 0.765625)" xlink:href="#DejaVuSans-5d"/>
     </g>
    </g>
    <g id="text_27">
     <!-- 1e−15 -->
     <g transform="translate(176.623928 5.081835)scale(0.06 -0.06)">
      <use xlink:href="#DejaVuSans-31"/>
      <use x="63.623047" xlink:href="#DejaVuSans-65"/>
      <use x="125.146484" xlink:href="#DejaVuSans-2212"/>
      <use x="208.935547" xlink:href="#DejaVuSans-31"/>
      <use x="272.558594" xlink:href="#DejaVuSans-35"/>
     </g>
    </g>
   </g>
   <g id="line2d_25">
    <path clip-path="url(#p48005fc7eb)" d="M 171.571699 93.302251 
L 175.646077 92.152521 
L 179.720455 91.411926 
L 183.794832 91.131967 
L 187.86921 88.808355 
L 191.943588 82.846752 
L 196.017965 72.768839 
L 200.092343 61.829775 
L 204.166721 51.618597 
L 208.241098 46.416275 
L 212.315476 51.153332 
L 216.389853 58.119949 
L 220.464231 64.66127 
L 224.538609 69.763482 
L 228.612986 70.499708 
L 232.687364 65.861908 
L 236.761742 64.773317 
L 240.836119 70.399917 
L 244.910497 77.910682 
L 248.984875 83.254965 
L 253.059252 86.272605 
L 257.13363 88.298731 
L 261.208007 89.548079 
L 265.282385 90.394213 
L 269.356763 91.038146 
L 273.43114 91.510693 
L 277.505518 91.850625 
L 281.579896 92.100674 
L 285.654273 92.356478 
L 289.728651 92.702754 
L 293.803029 93.027702 
L 297.877406 93.215884 
L 301.951784 93.288709 
L 306.026162 93.301938 
" style="fill:none;stroke:#000000;stroke-linecap:square;stroke-width:1.5;"/>
   </g>
   <g id="line2d_26">
    <path clip-path="url(#p48005fc7eb)" d="M 171.571699 93.302251 
L 175.646077 93.302251 
L 179.720455 93.302251 
L 183.794832 93.302219 
L 187.86921 93.228063 
L 191.943588 92.940027 
L 196.017965 91.002222 
L 200.092343 83.662056 
L 204.166721 72.571465 
L 208.241098 56.433066 
L 212.315476 45.495502 
L 216.389853 42.621435 
L 220.464231 43.691439 
L 224.538609 48.240814 
L 228.612986 41.036703 
L 232.687364 21.323493 
L 236.761742 11.935139 
L 240.836119 36.559336 
L 244.910497 61.183533 
L 248.984875 73.976138 
L 253.059252 82.953329 
L 257.13363 91.662536 
L 261.208007 92.205306 
L 265.282385 92.748076 
L 269.356763 93.272198 
L 273.43114 93.28139 
L 277.505518 93.290583 
L 281.579896 93.299776 
L 285.654273 93.302195 
L 289.728651 93.302214 
L 293.803029 93.302234 
L 297.877406 93.302251 
L 301.951784 93.302251 
L 306.026162 93.302251 
" style="fill:none;stroke:#d40000;stroke-dasharray:4,1;stroke-dashoffset:0;stroke-width:1.5;"/>
   </g>
   <g id="line2d_27">
    <path clip-path="url(#p48005fc7eb)" d="M 171.571699 93.302251 
L 175.646077 93.302251 
L 179.720455 93.301256 
L 183.794832 93.262284 
L 187.86921 92.855745 
L 191.943588 91.522068 
L 196.017965 83.098218 
L 200.092343 64.254422 
L 204.166721 39.866156 
L 208.241098 24.230236 
L 212.315476 17.025003 
L 216.389853 22.890904 
L 220.464231 30.864648 
L 224.538609 40.697883 
L 228.612986 37.812063 
L 232.687364 21.389499 
L 236.761742 14.360381 
L 240.836119 38.27553 
L 244.910497 62.190678 
L 248.984875 74.58171 
L 253.059252 83.256482 
L 257.13363 91.672777 
L 261.208007 92.212316 
L 265.282385 92.751855 
L 269.356763 93.27285 
L 273.43114 93.281808 
L 277.505518 93.290766 
L 281.579896 93.299725 
L 285.654273 93.302105 
L 289.728651 93.302156 
L 293.803029 93.302206 
L 297.877406 93.302251 
L 301.951784 93.302251 
L 306.026162 93.302251 
" style="fill:none;stroke:#0066ff;stroke-dasharray:4,1;stroke-dashoffset:0;stroke-width:1.5;"/>
   </g>
   <g id="line2d_28">
    <path clip-path="url(#p48005fc7eb)" d="M 171.571699 93.302251 
L 175.646077 93.302251 
L 179.720455 93.302251 
L 183.794832 93.261924 
L 187.86921 92.929919 
L 191.943588 91.949261 
L 196.017965 88.028664 
L 200.092343 81.130291 
L 204.166721 72.344201 
L 208.241098 62.740488 
L 212.315476 55.135094 
L 216.389853 50.627942 
L 220.464231 51.327079 
L 224.538609 56.619087 
L 228.612986 64.363716 
L 232.687364 74.718641 
L 236.761742 83.613461 
L 240.836119 87.698343 
L 244.910497 91.783226 
L 248.984875 92.922085 
L 253.059252 93.11092 
L 257.13363 93.293845 
L 261.208007 93.29668 
L 265.282385 93.299515 
L 269.356763 93.302251 
L 273.43114 93.302251 
L 277.505518 93.302251 
L 281.579896 93.302251 
L 285.654273 93.302251 
L 289.728651 93.302251 
L 293.803029 93.302251 
L 297.877406 93.302251 
L 301.951784 93.302251 
L 306.026162 93.302251 
" style="fill:none;stroke:#008000;stroke-dasharray:4,1;stroke-dashoffset:0;stroke-width:1.5;"/>
   </g>
   <g id="patch_9">
    <path d="M 176.623928 93.302251 
L 176.623928 8.081835 
" style="fill:none;stroke:#000000;stroke-linecap:square;stroke-linejoin:miter;stroke-width:0.8;"/>
   </g>
   <g id="patch_10">
    <path d="M 291.358402 93.302251 
L 291.358402 8.081835 
" style="fill:none;stroke:#000000;stroke-linecap:square;stroke-linejoin:miter;stroke-width:0.8;"/>
   </g>
   <g id="patch_11">
    <path d="M 176.623928 93.302251 
L 291.358402 93.302251 
" style="fill:none;stroke:#000000;stroke-linecap:square;stroke-linejoin:miter;stroke-width:0.8;"/>
   </g>
   <g id="patch_12">
    <path d="M 176.623928 8.081835 
L 291.358402 8.081835 
" style="fill:none;stroke:#000000;stroke-linecap:square;stroke-linejoin:miter;stroke-width:0.8;"/>
   </g>
   <g id="text_28">
    <g id="patch_13">
     <path d="M 182.360651 19.949731 
L 186.169714 19.949731 
Q 187.969714 19.949731 187.969714 18.149731 
L 187.969714 12.342856 
Q 187.969714 10.542856 186.169714 10.542856 
L 182.360651 10.542856 
Q 180.560651 10.542856 180.560651 12.342856 
L 180.560651 18.149731 
Q 180.560651 19.949731 182.360651 19.949731 
z
" style="fill:#ffffff;opacity:0.8;stroke:#000000;stroke-linejoin:miter;"/>
    </g>
    <!-- b -->
    <defs>
     <path d="M 48.6875 27.296875 
Q 48.6875 37.203125 44.609375 42.84375 
Q 40.53125 48.484375 33.40625 48.484375 
Q 26.265625 48.484375 22.1875 42.84375 
Q 18.109375 37.203125 18.109375 27.296875 
Q 18.109375 17.390625 22.1875 11.75 
Q 26.265625 6.109375 33.40625 6.109375 
Q 40.53125 6.109375 44.609375 11.75 
Q 48.6875 17.390625 48.6875 27.296875 
M 18.109375 46.390625 
Q 20.953125 51.265625 25.265625 53.625 
Q 29.59375 56 35.59375 56 
Q 45.5625 56 51.78125 48.09375 
Q 58.015625 40.1875 58.015625 27.296875 
Q 58.015625 14.40625 51.78125 6.484375 
Q 45.5625 -1.421875 35.59375 -1.421875 
Q 29.59375 -1.421875 25.265625 0.953125 
Q 20.953125 3.328125 18.109375 8.203125 
L 18.109375 0 
L 9.078125 0 
L 9.078125 75.984375 
L 18.109375 75.984375 
z
" id="DejaVuSans-62"/>
    </defs>
    <g transform="translate(182.360651 16.901919)scale(0.06 -0.06)">
     <use xlink:href="#DejaVuSans-62"/>
    </g>
   </g>
  </g>
  <g id="axes_3">
   <g id="patch_14">
    <path d="M 329.010526 93.302251 
L 443.745 93.302251 
L 443.745 8.081835 
L 329.010526 8.081835 
z
" style="fill:#ffffff;"/>
   </g>
   <g id="matplotlib.axis_5">
    <g id="xtick_11">
     <g id="line2d_29">
      <g>
       <use style="stroke:#000000;stroke-width:0.8;" x="339.440932" xlink:href="#m8694767025" y="93.302251"/>
      </g>
     </g>
     <g id="text_29">
      <!-- 0.10 -->
      <g transform="translate(332.761245 104.861314)scale(0.06 -0.06)">
       <use xlink:href="#DejaVuSans-30"/>
       <use x="63.623047" xlink:href="#DejaVuSans-2e"/>
       <use x="95.410156" xlink:href="#DejaVuSans-31"/>
       <use x="159.033203" xlink:href="#DejaVuSans-30"/>
      </g>
     </g>
    </g>
    <g id="xtick_12">
     <g id="line2d_30">
      <g>
       <use style="stroke:#000000;stroke-width:0.8;" x="365.516949" xlink:href="#m8694767025" y="93.302251"/>
      </g>
     </g>
     <g id="text_30">
      <!-- 0.15 -->
      <g transform="translate(358.837262 104.861314)scale(0.06 -0.06)">
       <use xlink:href="#DejaVuSans-30"/>
       <use x="63.623047" xlink:href="#DejaVuSans-2e"/>
       <use x="95.410156" xlink:href="#DejaVuSans-31"/>
       <use x="159.033203" xlink:href="#DejaVuSans-35"/>
      </g>
     </g>
    </g>
    <g id="xtick_13">
     <g id="line2d_31">
      <g>
       <use style="stroke:#000000;stroke-width:0.8;" x="391.592966" xlink:href="#m8694767025" y="93.302251"/>
      </g>
     </g>
     <g id="text_31">
      <!-- 0.20 -->
      <g transform="translate(384.913279 104.861314)scale(0.06 -0.06)">
       <use xlink:href="#DejaVuSans-30"/>
       <use x="63.623047" xlink:href="#DejaVuSans-2e"/>
       <use x="95.410156" xlink:href="#DejaVuSans-32"/>
       <use x="159.033203" xlink:href="#DejaVuSans-30"/>
      </g>
     </g>
    </g>
    <g id="xtick_14">
     <g id="line2d_32">
      <g>
       <use style="stroke:#000000;stroke-width:0.8;" x="417.668983" xlink:href="#m8694767025" y="93.302251"/>
      </g>
     </g>
     <g id="text_32">
      <!-- 0.25 -->
      <g transform="translate(410.989296 104.861314)scale(0.06 -0.06)">
       <use xlink:href="#DejaVuSans-30"/>
       <use x="63.623047" xlink:href="#DejaVuSans-2e"/>
       <use x="95.410156" xlink:href="#DejaVuSans-32"/>
       <use x="159.033203" xlink:href="#DejaVuSans-35"/>
      </g>
     </g>
    </g>
    <g id="xtick_15">
     <g id="line2d_33">
      <g>
       <use style="stroke:#000000;stroke-width:0.8;" x="443.745" xlink:href="#m8694767025" y="93.302251"/>
      </g>
     </g>
     <g id="text_33">
      <!-- 0.30 -->
      <g transform="translate(437.065312 104.861314)scale(0.06 -0.06)">
       <use xlink:href="#DejaVuSans-30"/>
       <use x="63.623047" xlink:href="#DejaVuSans-2e"/>
       <use x="95.410156" xlink:href="#DejaVuSans-33"/>
       <use x="159.033203" xlink:href="#DejaVuSans-30"/>
      </g>
     </g>
    </g>
    <g id="text_34">
     <!-- frequency [Hz] -->
     <g transform="translate(364.140263 114.668189)scale(0.06 -0.06)">
      <use xlink:href="#DejaVuSans-66"/>
      <use x="35.205078" xlink:href="#DejaVuSans-72"/>
      <use x="76.287109" xlink:href="#DejaVuSans-65"/>
      <use x="137.810547" xlink:href="#DejaVuSans-71"/>
      <use x="201.287109" xlink:href="#DejaVuSans-75"/>
      <use x="264.666016" xlink:href="#DejaVuSans-65"/>
      <use x="326.189453" xlink:href="#DejaVuSans-6e"/>
      <use x="389.568359" xlink:href="#DejaVuSans-63"/>
      <use x="444.548828" xlink:href="#DejaVuSans-79"/>
      <use x="503.728516" xlink:href="#DejaVuSans-20"/>
      <use x="535.515625" xlink:href="#DejaVuSans-5b"/>
      <use x="574.529297" xlink:href="#DejaVuSans-48"/>
      <use x="649.724609" xlink:href="#DejaVuSans-7a"/>
      <use x="702.214844" xlink:href="#DejaVuSans-5d"/>
     </g>
    </g>
   </g>
   <g id="matplotlib.axis_6">
    <g id="ytick_11">
     <g id="line2d_34">
      <g>
       <use style="stroke:#000000;stroke-width:0.8;" x="329.010526" xlink:href="#m4063a7dd8f" y="89.428596"/>
      </g>
     </g>
     <g id="text_35">
      <!-- 0.0 -->
      <g transform="translate(312.468651 91.708127)scale(0.06 -0.06)">
       <use xlink:href="#DejaVuSans-30"/>
       <use x="63.623047" xlink:href="#DejaVuSans-2e"/>
       <use x="95.410156" xlink:href="#DejaVuSans-30"/>
      </g>
     </g>
    </g>
    <g id="ytick_12">
     <g id="line2d_35">
      <g>
       <use style="stroke:#000000;stroke-width:0.8;" x="329.010526" xlink:href="#m4063a7dd8f" y="76.95754"/>
      </g>
     </g>
     <g id="text_36">
      <!-- 0.1 -->
      <g transform="translate(312.468651 79.237071)scale(0.06 -0.06)">
       <use xlink:href="#DejaVuSans-30"/>
       <use x="63.623047" xlink:href="#DejaVuSans-2e"/>
       <use x="95.410156" xlink:href="#DejaVuSans-31"/>
      </g>
     </g>
    </g>
    <g id="ytick_13">
     <g id="line2d_36">
      <g>
       <use style="stroke:#000000;stroke-width:0.8;" x="329.010526" xlink:href="#m4063a7dd8f" y="64.486483"/>
      </g>
     </g>
     <g id="text_37">
      <!-- 0.2 -->
      <g transform="translate(312.468651 66.766015)scale(0.06 -0.06)">
       <use xlink:href="#DejaVuSans-30"/>
       <use x="63.623047" xlink:href="#DejaVuSans-2e"/>
       <use x="95.410156" xlink:href="#DejaVuSans-32"/>
      </g>
     </g>
    </g>
    <g id="ytick_14">
     <g id="line2d_37">
      <g>
       <use style="stroke:#000000;stroke-width:0.8;" x="329.010526" xlink:href="#m4063a7dd8f" y="52.015427"/>
      </g>
     </g>
     <g id="text_38">
      <!-- 0.3 -->
      <g transform="translate(312.468651 54.294959)scale(0.06 -0.06)">
       <use xlink:href="#DejaVuSans-30"/>
       <use x="63.623047" xlink:href="#DejaVuSans-2e"/>
       <use x="95.410156" xlink:href="#DejaVuSans-33"/>
      </g>
     </g>
    </g>
    <g id="ytick_15">
     <g id="line2d_38">
      <g>
       <use style="stroke:#000000;stroke-width:0.8;" x="329.010526" xlink:href="#m4063a7dd8f" y="39.544371"/>
      </g>
     </g>
     <g id="text_39">
      <!-- 0.4 -->
      <g transform="translate(312.468651 41.823902)scale(0.06 -0.06)">
       <use xlink:href="#DejaVuSans-30"/>
       <use x="63.623047" xlink:href="#DejaVuSans-2e"/>
       <use x="95.410156" xlink:href="#DejaVuSans-34"/>
      </g>
     </g>
    </g>
    <g id="ytick_16">
     <g id="line2d_39">
      <g>
       <use style="stroke:#000000;stroke-width:0.8;" x="329.010526" xlink:href="#m4063a7dd8f" y="27.073315"/>
      </g>
     </g>
     <g id="text_40">
      <!-- 0.5 -->
      <g transform="translate(312.468651 29.352846)scale(0.06 -0.06)">
       <use xlink:href="#DejaVuSans-30"/>
       <use x="63.623047" xlink:href="#DejaVuSans-2e"/>
       <use x="95.410156" xlink:href="#DejaVuSans-35"/>
      </g>
     </g>
    </g>
    <g id="ytick_17">
     <g id="line2d_40">
      <g>
       <use style="stroke:#000000;stroke-width:0.8;" x="329.010526" xlink:href="#m4063a7dd8f" y="14.602259"/>
      </g>
     </g>
     <g id="text_41">
      <!-- 0.6 -->
      <defs>
       <path d="M 33.015625 40.375 
Q 26.375 40.375 22.484375 35.828125 
Q 18.609375 31.296875 18.609375 23.390625 
Q 18.609375 15.53125 22.484375 10.953125 
Q 26.375 6.390625 33.015625 6.390625 
Q 39.65625 6.390625 43.53125 10.953125 
Q 47.40625 15.53125 47.40625 23.390625 
Q 47.40625 31.296875 43.53125 35.828125 
Q 39.65625 40.375 33.015625 40.375 
M 52.59375 71.296875 
L 52.59375 62.3125 
Q 48.875 64.0625 45.09375 64.984375 
Q 41.3125 65.921875 37.59375 65.921875 
Q 27.828125 65.921875 22.671875 59.328125 
Q 17.53125 52.734375 16.796875 39.40625 
Q 19.671875 43.65625 24.015625 45.921875 
Q 28.375 48.1875 33.59375 48.1875 
Q 44.578125 48.1875 50.953125 41.515625 
Q 57.328125 34.859375 57.328125 23.390625 
Q 57.328125 12.15625 50.6875 5.359375 
Q 44.046875 -1.421875 33.015625 -1.421875 
Q 20.359375 -1.421875 13.671875 8.265625 
Q 6.984375 17.96875 6.984375 36.375 
Q 6.984375 53.65625 15.1875 63.9375 
Q 23.390625 74.21875 37.203125 74.21875 
Q 40.921875 74.21875 44.703125 73.484375 
Q 48.484375 72.75 52.59375 71.296875 
" id="DejaVuSans-36"/>
      </defs>
      <g transform="translate(312.468651 16.88179)scale(0.06 -0.06)">
       <use xlink:href="#DejaVuSans-30"/>
       <use x="63.623047" xlink:href="#DejaVuSans-2e"/>
       <use x="95.410156" xlink:href="#DejaVuSans-36"/>
      </g>
     </g>
    </g>
    <g id="text_42">
     <!-- average whitenend PSD -->
     <defs>
      <path d="M 4.203125 54.6875 
L 13.1875 54.6875 
L 24.421875 12.015625 
L 35.59375 54.6875 
L 46.1875 54.6875 
L 57.421875 12.015625 
L 68.609375 54.6875 
L 77.59375 54.6875 
L 63.28125 0 
L 52.6875 0 
L 40.921875 44.828125 
L 29.109375 0 
L 18.5 0 
z
" id="DejaVuSans-77"/>
      <path d="M 54.890625 33.015625 
L 54.890625 0 
L 45.90625 0 
L 45.90625 32.71875 
Q 45.90625 40.484375 42.875 44.328125 
Q 39.84375 48.1875 33.796875 48.1875 
Q 26.515625 48.1875 22.3125 43.546875 
Q 18.109375 38.921875 18.109375 30.90625 
L 18.109375 0 
L 9.078125 0 
L 9.078125 75.984375 
L 18.109375 75.984375 
L 18.109375 46.1875 
Q 21.34375 51.125 25.703125 53.5625 
Q 30.078125 56 35.796875 56 
Q 45.21875 56 50.046875 50.171875 
Q 54.890625 44.34375 54.890625 33.015625 
" id="DejaVuSans-68"/>
      <path d="M 9.421875 54.6875 
L 18.40625 54.6875 
L 18.40625 0 
L 9.421875 0 
z
M 9.421875 75.984375 
L 18.40625 75.984375 
L 18.40625 64.59375 
L 9.421875 64.59375 
z
" id="DejaVuSans-69"/>
      <path d="M 18.3125 70.21875 
L 18.3125 54.6875 
L 36.8125 54.6875 
L 36.8125 47.703125 
L 18.3125 47.703125 
L 18.3125 18.015625 
Q 18.3125 11.328125 20.140625 9.421875 
Q 21.96875 7.515625 27.59375 7.515625 
L 36.8125 7.515625 
L 36.8125 0 
L 27.59375 0 
Q 17.1875 0 13.234375 3.875 
Q 9.28125 7.765625 9.28125 18.015625 
L 9.28125 47.703125 
L 2.6875 47.703125 
L 2.6875 54.6875 
L 9.28125 54.6875 
L 9.28125 70.21875 
z
" id="DejaVuSans-74"/>
      <path d="M 45.40625 46.390625 
L 45.40625 75.984375 
L 54.390625 75.984375 
L 54.390625 0 
L 45.40625 0 
L 45.40625 8.203125 
Q 42.578125 3.328125 38.25 0.953125 
Q 33.9375 -1.421875 27.875 -1.421875 
Q 17.96875 -1.421875 11.734375 6.484375 
Q 5.515625 14.40625 5.515625 27.296875 
Q 5.515625 40.1875 11.734375 48.09375 
Q 17.96875 56 27.875 56 
Q 33.9375 56 38.25 53.625 
Q 42.578125 51.265625 45.40625 46.390625 
M 14.796875 27.296875 
Q 14.796875 17.390625 18.875 11.75 
Q 22.953125 6.109375 30.078125 6.109375 
Q 37.203125 6.109375 41.296875 11.75 
Q 45.40625 17.390625 45.40625 27.296875 
Q 45.40625 37.203125 41.296875 42.84375 
Q 37.203125 48.484375 30.078125 48.484375 
Q 22.953125 48.484375 18.875 42.84375 
Q 14.796875 37.203125 14.796875 27.296875 
" id="DejaVuSans-64"/>
     </defs>
     <g transform="translate(307.220838 86.667668)rotate(-90)scale(0.06 -0.06)">
      <use xlink:href="#DejaVuSans-61"/>
      <use x="61.279297" xlink:href="#DejaVuSans-76"/>
      <use x="120.458984" xlink:href="#DejaVuSans-65"/>
      <use x="181.982422" xlink:href="#DejaVuSans-72"/>
      <use x="223.095703" xlink:href="#DejaVuSans-61"/>
      <use x="284.375" xlink:href="#DejaVuSans-67"/>
      <use x="347.851562" xlink:href="#DejaVuSans-65"/>
      <use x="409.375" xlink:href="#DejaVuSans-20"/>
      <use x="441.162109" xlink:href="#DejaVuSans-77"/>
      <use x="522.949219" xlink:href="#DejaVuSans-68"/>
      <use x="586.328125" xlink:href="#DejaVuSans-69"/>
      <use x="614.111328" xlink:href="#DejaVuSans-74"/>
      <use x="653.320312" xlink:href="#DejaVuSans-65"/>
      <use x="714.84375" xlink:href="#DejaVuSans-6e"/>
      <use x="778.222656" xlink:href="#DejaVuSans-65"/>
      <use x="839.746094" xlink:href="#DejaVuSans-6e"/>
      <use x="903.125" xlink:href="#DejaVuSans-64"/>
      <use x="966.601562" xlink:href="#DejaVuSans-20"/>
      <use x="998.388672" xlink:href="#DejaVuSans-50"/>
      <use x="1058.691406" xlink:href="#DejaVuSans-53"/>
      <use x="1122.167969" xlink:href="#DejaVuSans-44"/>
     </g>
    </g>
   </g>
   <g id="line2d_41">
    <path clip-path="url(#p06bc560f8c)" d="M 323.958297 89.428596 
L 328.032675 87.182211 
L 332.107053 85.56432 
L 336.18143 85.419374 
L 340.255808 82.562032 
L 344.330186 75.819675 
L 348.404563 62.140433 
L 352.478941 46.927052 
L 356.553319 34.225305 
L 360.627696 24.823074 
L 364.702074 24.173128 
L 368.776451 27.180714 
L 372.850829 32.325612 
L 376.925207 37.835684 
L 380.999584 36.177572 
L 385.073962 24.831504 
L 389.14834 21.53297 
L 393.222717 30.077698 
L 397.297095 45.445752 
L 401.371473 57.640368 
L 405.44585 65.839087 
L 409.520228 72.223078 
L 413.594605 76.202097 
L 417.668983 78.952324 
L 421.743361 81.106157 
L 425.817738 82.802607 
L 429.892116 83.913691 
L 433.966494 84.727403 
L 438.040871 85.641707 
L 442.115249 86.955105 
L 446.189627 88.26309 
L 450.264004 89.060825 
L 454.338382 89.370974 
L 458.412759 89.427264 
" style="fill:none;stroke:#000000;stroke-linecap:square;stroke-width:1.5;"/>
   </g>
   <g id="line2d_42">
    <path clip-path="url(#p06bc560f8c)" d="M 323.958297 89.428596 
L 328.032675 89.428596 
L 332.107053 89.428596 
L 336.18143 89.428582 
L 340.255808 89.379998 
L 344.330186 89.198557 
L 348.404563 88.302081 
L 352.478941 84.633874 
L 356.553319 78.832749 
L 360.627696 68.157331 
L 364.702074 59.313823 
L 368.776451 53.310554 
L 372.850829 50.700436 
L 376.925207 51.083679 
L 380.999584 42.128957 
L 385.073962 23.235948 
L 389.14834 11.955491 
L 393.222717 25.752607 
L 397.297095 39.549722 
L 401.371473 54.297494 
L 405.44585 69.35183 
L 409.520228 83.984933 
L 413.594605 85.781497 
L 417.668983 87.578062 
L 421.743361 89.312985 
L 425.817738 89.345857 
L 429.892116 89.37873 
L 433.966494 89.411602 
L 438.040871 89.42191 
L 442.115249 89.424225 
L 446.189627 89.426541 
L 450.264004 89.428596 
L 454.338382 89.428596 
L 458.412759 89.428596 
" style="fill:none;stroke:#d40000;stroke-dasharray:4,1;stroke-dashoffset:0;stroke-width:1.5;"/>
   </g>
   <g id="line2d_43">
    <path clip-path="url(#p06bc560f8c)" d="M 323.958297 89.428596 
L 328.032675 89.428596 
L 332.107053 89.428232 
L 336.18143 89.392502 
L 340.255808 89.057954 
L 344.330186 88.011755 
L 348.404563 82.555398 
L 352.478941 72.231431 
L 356.553319 59.276629 
L 360.627696 49.964184 
L 364.702074 44.476684 
L 368.776451 44.919466 
L 372.850829 47.339998 
L 376.925207 51.505255 
L 380.999584 46.514073 
L 385.073962 31.777797 
L 389.14834 23.322429 
L 393.222717 35.55788 
L 397.297095 47.793332 
L 401.371473 60.448045 
L 405.44585 73.237959 
L 409.520228 85.661147 
L 413.594605 86.908819 
L 417.668983 88.156491 
L 421.743361 89.361238 
L 425.817738 89.380721 
L 429.892116 89.400205 
L 433.966494 89.419688 
L 438.040871 89.42556 
L 442.115249 89.426611 
L 446.189627 89.427663 
L 450.264004 89.428596 
L 454.338382 89.428596 
L 458.412759 89.428596 
" style="fill:none;stroke:#0066ff;stroke-dasharray:4,1;stroke-dashoffset:0;stroke-width:1.5;"/>
   </g>
   <g id="line2d_44">
    <path clip-path="url(#p06bc560f8c)" d="M 323.958297 89.428596 
L 328.032675 89.428596 
L 332.107053 89.428596 
L 336.18143 89.409463 
L 340.255808 89.130867 
L 344.330186 88.213802 
L 348.404563 84.147898 
L 352.478941 76.732365 
L 356.553319 67.10464 
L 360.627696 55.585922 
L 364.702074 43.828348 
L 368.776451 31.700447 
L 372.850829 26.375305 
L 376.925207 27.051403 
L 380.999584 34.966765 
L 385.073962 50.586794 
L 389.14834 64.755064 
L 393.222717 74.140893 
L 397.297095 83.526722 
L 401.371473 86.778879 
L 405.44585 88.053068 
L 409.520228 89.288277 
L 413.594605 89.335601 
L 417.668983 89.382925 
L 421.743361 89.428596 
L 425.817738 89.428596 
L 429.892116 89.428596 
L 433.966494 89.428596 
L 438.040871 89.428596 
L 442.115249 89.428596 
L 446.189627 89.428596 
L 450.264004 89.428596 
L 454.338382 89.428596 
L 458.412759 89.428596 
" style="fill:none;stroke:#008000;stroke-dasharray:4,1;stroke-dashoffset:0;stroke-width:1.5;"/>
   </g>
   <g id="patch_15">
    <path d="M 329.010526 93.302251 
L 329.010526 8.081835 
" style="fill:none;stroke:#000000;stroke-linecap:square;stroke-linejoin:miter;stroke-width:0.8;"/>
   </g>
   <g id="patch_16">
    <path d="M 443.745 93.302251 
L 443.745 8.081835 
" style="fill:none;stroke:#000000;stroke-linecap:square;stroke-linejoin:miter;stroke-width:0.8;"/>
   </g>
   <g id="patch_17">
    <path d="M 329.010526 93.302251 
L 443.745 93.302251 
" style="fill:none;stroke:#000000;stroke-linecap:square;stroke-linejoin:miter;stroke-width:0.8;"/>
   </g>
   <g id="patch_18">
    <path d="M 329.010526 8.081835 
L 443.745 8.081835 
" style="fill:none;stroke:#000000;stroke-linecap:square;stroke-linejoin:miter;stroke-width:0.8;"/>
   </g>
   <g id="text_43">
    <g id="patch_19">
     <path d="M 334.747249 19.949731 
L 338.046312 19.949731 
Q 339.846312 19.949731 339.846312 18.149731 
L 339.846312 12.342856 
Q 339.846312 10.542856 338.046312 10.542856 
L 334.747249 10.542856 
Q 332.947249 10.542856 332.947249 12.342856 
L 332.947249 18.149731 
Q 332.947249 19.949731 334.747249 19.949731 
z
" style="fill:#ffffff;opacity:0.8;stroke:#000000;stroke-linejoin:miter;"/>
    </g>
    <!-- c -->
    <g transform="translate(334.747249 16.901919)scale(0.06 -0.06)">
     <use xlink:href="#DejaVuSans-63"/>
    </g>
   </g>
  </g>
  <g id="legend_1">
   <g id="patch_20">
    <path d="M 409.780875 41.193 
L 458.229 41.193 
Q 459.429 41.193 459.429 39.993 
L 459.429 5.3655 
Q 459.429 4.1655 458.229 4.1655 
L 409.780875 4.1655 
Q 408.580875 4.1655 408.580875 5.3655 
L 408.580875 39.993 
Q 408.580875 41.193 409.780875 41.193 
z
" style="fill:#ffffff;opacity:0.8;stroke:#cccccc;stroke-linejoin:miter;"/>
   </g>
   <g id="line2d_45">
    <path d="M 410.980875 9.024562 
L 422.980875 9.024562 
" style="fill:none;stroke:#000000;stroke-linecap:square;stroke-width:1.5;"/>
   </g>
   <g id="line2d_46"/>
   <g id="text_44">
    <!-- observed -->
    <defs>
     <path d="M 30.609375 48.390625 
Q 23.390625 48.390625 19.1875 42.75 
Q 14.984375 37.109375 14.984375 27.296875 
Q 14.984375 17.484375 19.15625 11.84375 
Q 23.34375 6.203125 30.609375 6.203125 
Q 37.796875 6.203125 41.984375 11.859375 
Q 46.1875 17.53125 46.1875 27.296875 
Q 46.1875 37.015625 41.984375 42.703125 
Q 37.796875 48.390625 30.609375 48.390625 
M 30.609375 56 
Q 42.328125 56 49.015625 48.375 
Q 55.71875 40.765625 55.71875 27.296875 
Q 55.71875 13.875 49.015625 6.21875 
Q 42.328125 -1.421875 30.609375 -1.421875 
Q 18.84375 -1.421875 12.171875 6.21875 
Q 5.515625 13.875 5.515625 27.296875 
Q 5.515625 40.765625 12.171875 48.375 
Q 18.84375 56 30.609375 56 
" id="DejaVuSans-6f"/>
     <path d="M 44.28125 53.078125 
L 44.28125 44.578125 
Q 40.484375 46.53125 36.375 47.5 
Q 32.28125 48.484375 27.875 48.484375 
Q 21.1875 48.484375 17.84375 46.4375 
Q 14.5 44.390625 14.5 40.28125 
Q 14.5 37.15625 16.890625 35.375 
Q 19.28125 33.59375 26.515625 31.984375 
L 29.59375 31.296875 
Q 39.15625 29.25 43.1875 25.515625 
Q 47.21875 21.78125 47.21875 15.09375 
Q 47.21875 7.46875 41.1875 3.015625 
Q 35.15625 -1.421875 24.609375 -1.421875 
Q 20.21875 -1.421875 15.453125 -0.5625 
Q 10.6875 0.296875 5.421875 2 
L 5.421875 11.28125 
Q 10.40625 8.6875 15.234375 7.390625 
Q 20.0625 6.109375 24.8125 6.109375 
Q 31.15625 6.109375 34.5625 8.28125 
Q 37.984375 10.453125 37.984375 14.40625 
Q 37.984375 18.0625 35.515625 20.015625 
Q 33.0625 21.96875 24.703125 23.78125 
L 21.578125 24.515625 
Q 13.234375 26.265625 9.515625 29.90625 
Q 5.8125 33.546875 5.8125 39.890625 
Q 5.8125 47.609375 11.28125 51.796875 
Q 16.75 56 26.8125 56 
Q 31.78125 56 36.171875 55.265625 
Q 40.578125 54.546875 44.28125 53.078125 
" id="DejaVuSans-73"/>
    </defs>
    <g transform="translate(427.780875 11.124562)scale(0.06 -0.06)">
     <use xlink:href="#DejaVuSans-6f"/>
     <use x="61.181641" xlink:href="#DejaVuSans-62"/>
     <use x="124.658203" xlink:href="#DejaVuSans-73"/>
     <use x="176.757812" xlink:href="#DejaVuSans-65"/>
     <use x="238.28125" xlink:href="#DejaVuSans-72"/>
     <use x="279.394531" xlink:href="#DejaVuSans-76"/>
     <use x="338.574219" xlink:href="#DejaVuSans-65"/>
     <use x="400.097656" xlink:href="#DejaVuSans-64"/>
    </g>
   </g>
   <g id="line2d_47">
    <path d="M 410.980875 17.831437 
L 422.980875 17.831437 
" style="fill:none;stroke:#d40000;stroke-dasharray:4,1;stroke-dashoffset:0;stroke-width:1.5;"/>
   </g>
   <g id="line2d_48"/>
   <g id="text_45">
    <!-- model NR -->
    <defs>
     <path d="M 52 44.1875 
Q 55.375 50.25 60.0625 53.125 
Q 64.75 56 71.09375 56 
Q 79.640625 56 84.28125 50.015625 
Q 88.921875 44.046875 88.921875 33.015625 
L 88.921875 0 
L 79.890625 0 
L 79.890625 32.71875 
Q 79.890625 40.578125 77.09375 44.375 
Q 74.3125 48.1875 68.609375 48.1875 
Q 61.625 48.1875 57.5625 43.546875 
Q 53.515625 38.921875 53.515625 30.90625 
L 53.515625 0 
L 44.484375 0 
L 44.484375 32.71875 
Q 44.484375 40.625 41.703125 44.40625 
Q 38.921875 48.1875 33.109375 48.1875 
Q 26.21875 48.1875 22.15625 43.53125 
Q 18.109375 38.875 18.109375 30.90625 
L 18.109375 0 
L 9.078125 0 
L 9.078125 54.6875 
L 18.109375 54.6875 
L 18.109375 46.1875 
Q 21.1875 51.21875 25.484375 53.609375 
Q 29.78125 56 35.6875 56 
Q 41.65625 56 45.828125 52.96875 
Q 50 49.953125 52 44.1875 
" id="DejaVuSans-6d"/>
     <path d="M 9.421875 75.984375 
L 18.40625 75.984375 
L 18.40625 0 
L 9.421875 0 
z
" id="DejaVuSans-6c"/>
     <path d="M 9.8125 72.90625 
L 23.09375 72.90625 
L 55.421875 11.921875 
L 55.421875 72.90625 
L 64.984375 72.90625 
L 64.984375 0 
L 51.703125 0 
L 19.390625 60.984375 
L 19.390625 0 
L 9.8125 0 
z
" id="DejaVuSans-4e"/>
     <path d="M 44.390625 34.1875 
Q 47.5625 33.109375 50.5625 29.59375 
Q 53.5625 26.078125 56.59375 19.921875 
L 66.609375 0 
L 56 0 
L 46.6875 18.703125 
Q 43.0625 26.03125 39.671875 28.421875 
Q 36.28125 30.8125 30.421875 30.8125 
L 19.671875 30.8125 
L 19.671875 0 
L 9.8125 0 
L 9.8125 72.90625 
L 32.078125 72.90625 
Q 44.578125 72.90625 50.734375 67.671875 
Q 56.890625 62.453125 56.890625 51.90625 
Q 56.890625 45.015625 53.6875 40.46875 
Q 50.484375 35.9375 44.390625 34.1875 
M 19.671875 64.796875 
L 19.671875 38.921875 
L 32.078125 38.921875 
Q 39.203125 38.921875 42.84375 42.21875 
Q 46.484375 45.515625 46.484375 51.90625 
Q 46.484375 58.296875 42.84375 61.546875 
Q 39.203125 64.796875 32.078125 64.796875 
z
" id="DejaVuSans-52"/>
    </defs>
    <g transform="translate(427.780875 19.931438)scale(0.06 -0.06)">
     <use xlink:href="#DejaVuSans-6d"/>
     <use x="97.412109" xlink:href="#DejaVuSans-6f"/>
     <use x="158.59375" xlink:href="#DejaVuSans-64"/>
     <use x="222.070312" xlink:href="#DejaVuSans-65"/>
     <use x="283.59375" xlink:href="#DejaVuSans-6c"/>
     <use x="311.376953" xlink:href="#DejaVuSans-20"/>
     <use x="343.164062" xlink:href="#DejaVuSans-4e"/>
     <use x="417.96875" xlink:href="#DejaVuSans-52"/>
    </g>
   </g>
   <g id="line2d_49">
    <path d="M 410.980875 26.638312 
L 422.980875 26.638312 
" style="fill:none;stroke:#0066ff;stroke-dasharray:4,1;stroke-dashoffset:0;stroke-width:1.5;"/>
   </g>
   <g id="line2d_50"/>
   <g id="text_46">
    <!-- model R -->
    <g transform="translate(427.780875 28.738312)scale(0.06 -0.06)">
     <use xlink:href="#DejaVuSans-6d"/>
     <use x="97.412109" xlink:href="#DejaVuSans-6f"/>
     <use x="158.59375" xlink:href="#DejaVuSans-64"/>
     <use x="222.070312" xlink:href="#DejaVuSans-65"/>
     <use x="283.59375" xlink:href="#DejaVuSans-6c"/>
     <use x="311.376953" xlink:href="#DejaVuSans-20"/>
     <use x="343.164062" xlink:href="#DejaVuSans-52"/>
    </g>
   </g>
   <g id="line2d_51">
    <path d="M 410.980875 35.445187 
L 422.980875 35.445187 
" style="fill:none;stroke:#008000;stroke-dasharray:4,1;stroke-dashoffset:0;stroke-width:1.5;"/>
   </g>
   <g id="line2d_52"/>
   <g id="text_47">
    <!-- model NA -->
    <defs>
     <path d="M 34.1875 63.1875 
L 20.796875 26.90625 
L 47.609375 26.90625 
z
M 28.609375 72.90625 
L 39.796875 72.90625 
L 67.578125 0 
L 57.328125 0 
L 50.6875 18.703125 
L 17.828125 18.703125 
L 11.1875 0 
L 0.78125 0 
z
" id="DejaVuSans-41"/>
    </defs>
    <g transform="translate(427.780875 37.545187)scale(0.06 -0.06)">
     <use xlink:href="#DejaVuSans-6d"/>
     <use x="97.412109" xlink:href="#DejaVuSans-6f"/>
     <use x="158.59375" xlink:href="#DejaVuSans-64"/>
     <use x="222.070312" xlink:href="#DejaVuSans-65"/>
     <use x="283.59375" xlink:href="#DejaVuSans-6c"/>
     <use x="311.376953" xlink:href="#DejaVuSans-20"/>
     <use x="343.164062" xlink:href="#DejaVuSans-4e"/>
     <use x="417.96875" xlink:href="#DejaVuSans-41"/>
    </g>
   </g>
  </g>
 </g>
 <defs>
  <clipPath id="p850b841861">
   <rect height="85.220416" width="114.734474" x="24.23733" y="8.081835"/>
  </clipPath>
  <clipPath id="p48005fc7eb">
   <rect height="85.220416" width="114.734474" x="176.623928" y="8.081835"/>
  </clipPath>
  <clipPath id="p06bc560f8c">
   <rect height="85.220416" width="114.734474" x="329.010526" y="8.081835"/>
  </clipPath>
 </defs>
</svg>
